<svg width="51" height="51" viewBox="0 0 51 51" fill="none" xmlns="http://www.w3.org/2000/svg">
<path fill-rule="evenodd" clip-rule="evenodd" d="M13.4945 13.4936C13.8461 13.142 14.323 12.9445 14.8203 12.9445C15.3176 12.9445 15.7945 13.142 16.1461 13.4936L26.7527 24.1002C27.1044 24.4519 27.3019 24.9288 27.3019 25.4261C27.3019 25.9233 27.1044 26.4003 26.7527 26.7519L16.1461 37.3585C15.7945 37.7101 15.3176 37.9077 14.8203 37.9077C14.323 37.9077 13.8461 37.7101 13.4945 37.3585C13.1429 37.0069 12.9453 36.5299 12.9453 36.0327C12.9453 35.5354 13.1429 35.0585 13.4945 34.7068L22.7753 25.4261L13.4945 16.1453C13.1429 15.7937 12.9453 15.3167 12.9453 14.8195C12.9453 14.3222 13.1429 13.8453 13.4945 13.4936Z" fill="url(#paint0_linear_116_390)"/>
<path fill-rule="evenodd" clip-rule="evenodd" d="M24.1014 26.7519C23.7498 26.4003 23.5522 25.9233 23.5522 25.4261C23.5522 24.9288 23.7498 24.4519 24.1014 24.1002L34.708 13.4936C35.0596 13.142 35.5366 12.9445 36.0338 12.9445C36.5311 12.9445 37.008 13.142 37.3597 13.4936C37.7113 13.8453 37.9088 14.3222 37.9088 14.8195C37.9088 15.3167 37.7113 15.7937 37.3597 16.1453L28.0789 25.4261L37.3597 34.7068C37.7113 35.0585 37.9088 35.5354 37.9088 36.0327C37.9088 36.5299 37.7113 37.0069 37.3597 37.3585C37.008 37.7101 36.5311 37.9077 36.0338 37.9077C35.5366 37.9077 35.0596 37.7101 34.708 37.3585L24.1014 26.7519Z" fill="url(#paint1_linear_116_390)"/>
<defs>
<linearGradient id="paint0_linear_116_390" x1="7.5478" y1="-2.65755" x2="44.3977" y2="5.50057" gradientUnits="userSpaceOnUse">
<stop stop-color="#976464"/>
<stop offset="1" stop-color="#CFA5A5"/>
</linearGradient>
<linearGradient id="paint1_linear_116_390" x1="7.5478" y1="-2.65755" x2="44.3977" y2="5.50057" gradientUnits="userSpaceOnUse">
<stop stop-color="#976464"/>
<stop offset="1" stop-color="#CFA5A5"/>
</linearGradient>
</defs>
</svg>
